<svg version="1.1" width="64" height="65" viewBox="-1 -1 64 65" xmlns="http://www.w3.org/2000/svg" xmlns:xlink="http://www.w3.org/1999/xlink">
  <!-- Exported by Scratch - http://scratch.mit.edu/ -->
  <g id="ID0.8680915147997439" transform="matrix(0.6430867910385132, 0, 0, 0.6430867910385132, 0, 0.4)">
    <g id="Apple">
      <path id="Fill_1_" fill="#EC1C2C" d="M 59.083 34.402 C 59.083 48.929 46.558 60.709 31.105 60.709 C 15.652 60.709 3.128 48.934 3.128 34.402 C 3.128 19.875 15.651 13.127 31.105 13.127 C 46.557 13.126 59.083 19.876 59.083 34.402 Z "/>
      <g id="Outline_1_">
        <path id="Outline_2_" fill="#231F20" d="M 34.285 11.960 C 29.677 11.569 25.149 12.149 25.149 12.149 C 10.821 13.473 0 19.883 0 34.121 C 0 50.277 13.928 63.375 31.107 63.375 C 48.289 63.375 62.216 50.277 62.216 34.121 C 62.216 18.977 49.969 12.690 34.285 11.960 Z M 31.108 59.333 C 16.549 59.333 4.751 48.234 4.751 34.548 C 4.751 22.484 13.920 16.115 26.065 14.774 C 26.314 14.745 34.521 14.630 34.521 14.630 C 47.463 15.566 57.470 21.948 57.470 34.550 C 57.464 48.236 45.666 59.333 31.108 59.333 Z "/>
        <path id="Line" fill="#231F20" d="M 40.332 19.062 C 38.029 18.301 35.715 18.821 33.403 19.451 C 31.487 20.059 27.291 20.613 27.213 20.549 C 26.015 20.491 24.824 20.191 23.642 19.450 C 23.162 19.147 22.660 19.828 23.044 20.223 C 24.812 22.026 27.112 22.005 29.499 21.737 C 33.074 21.336 36.492 21.246 40.060 21.065 C 41.220 21.004 41.433 19.426 40.332 19.062 Z "/>
      </g>
      <path id="Shine" fill="#FFFFFF" d="M 12.555 34.261 C 12.555 37.692 14.405 40.473 12.471 40.473 C 10.537 40.473 8.971 37.692 8.971 34.261 C 8.971 30.831 10.537 28.050 12.471 28.050 C 14.405 28.050 12.555 30.832 12.555 34.261 Z "/>
    </g>
    <g id="Stem">
      <path id="Fill" fill="#99661D" d="M 29.515 20.766 C 29.886 20.700 30.488 20.636 30.863 20.547 C 30.925 15.720 31.401 10.899 29.239 6.335 C 28.647 5.082 27.909 3.981 27.175 2.853 C 26.155 3.464 25.137 4.076 24.116 4.686 C 28.310 8.982 29.773 14.618 29.515 20.766 Z "/>
      <path id="Outline" fill="#231F20" d="M 28.602 0.600 C 28.209 0.077 27.524 -0.182 26.944 0.165 C 25.139 1.249 23.337 2.333 21.530 3.417 C 20.893 3.800 20.692 4.788 21.288 5.315 C 24.765 8.406 25.905 11.356 26.188 11.872 C 26.780 12.953 27.780 16.406 27.750 19.621 L 27.796 21.230 C 29.275 21.792 33.046 20.668 33.046 20.668 C 33.067 20.314 33.297 18.438 33.297 18.438 C 33.466 17.677 34.130 7.958 28.602 0.600 Z M 30.755 20.380 L 29.646 20.521 L 29.646 19.369 C 29.696 13.655 28.078 8.744 24.116 4.686 C 25.137 4.076 26.155 3.464 27.175 2.853 C 27.909 3.981 28.647 5.082 29.239 6.335 C 31.251 10.582 30.873 14.710 30.761 19.152 L 30.755 20.380 Z "/>
    </g>
  </g>
</svg>